# xmcd
#
# Track frame offsets: 
#        150
#        14310
#        29570
#        49264
#        63840
#        76195
#        91355
#        108615
#        122125
#        132372
#        135337
#        175902
#
# Disc length: 2896 seconds
#
# Revision: 13
# Processed by: cddbd v1.5.2PL0 Copyright (c) Steve Scherf et al.
# Submitted via: ExactAudioCopy v1.0b4
#
DISCID=9d0b4e0c
DTITLE=Rory Block - Confessions of a Blues Singer
DYEAR=1998
DGENRE=Blues, Country Blues
TTITLE0=If I Had Possession over Judgement Day
TTITLE1=Ramblin' on My Mind
TTITLE2=Kassie Jones
TTITLE3=I Am in the Heavenly Way
TTITLE4=Statesboro Blues
TTITLE5=Long Way from Home
TTITLE6=Bo Weavil Blues
TTITLE7=I'll Go with Him
TTITLE8=Titanic (When That Great Ship Went Down)
TTITLE9=Silver Slide Moan
TTITLE10=Mother Marian
TTITLE11=Life Song
EXTD=
EXTT0=
EXTT1=
EXTT2=
EXTT3=
EXTT4=
EXTT5=
EXTT6=
EXTT7=
EXTT8=
EXTT9=
EXTT10=
EXTT11=
PLAYORDER=
